<svg xmlns="http://www.w3.org/2000/svg" width="24" height="24"
     viewBox="0 0 24 24" fill="none" stroke="currentColor"
     stroke-width="3" stroke-linecap="round" stroke-linejoin="round"
     class="feather feather-github">
  <path d="M9 19c-4 1-4 -2 -6 -2"></path>
  <path d="M15 22v-3.87a3.37 3.37 0 0 0 -.94 -2.61
           c3.14 -.35 6.44 -1.54 6.44 -7
           a5.44 5.44 0 0 0 -1.5 -3.75
           a5.07 5.07 0 0 0 -.09 -3.77
           s-1.18 -.37 -3.88 1.48
           a13.38 13.38 0 0 0 -7 0
           c-2.7 -1.85 -3.88 -1.48 -3.88 -1.48
           a5.07 5.07 0 0 0 -.09 3.77
           a5.44 5.44 0 0 0 -1.5 3.75
           c0 5.42 3.3 6.61 6.44 7
           A3.37 3.37 0 0 0 9 18.13V22"></path>
</svg>
